<?xml version="1.0" encoding="UTF-8" standalone="no"?><!DOCTYPE svg PUBLIC "-//W3C//DTD SVG 1.1//EN" "http://www.w3.org/Graphics/SVG/1.1/DTD/svg11.dtd"><svg width="100%" height="100%" viewBox="0 0 512 512" version="1.1" xmlns="http://www.w3.org/2000/svg" xmlns:xlink="http://www.w3.org/1999/xlink" xml:space="preserve" xmlns:serif="http://www.serif.com/" style="fill-rule:evenodd;clip-rule:evenodd;stroke-linejoin:round;stroke-miterlimit:2;"><g id="Layer_1"><path d="M202.125,103.612l-141.697,141.697c-5.904,5.905 -5.904,15.477 0,21.382l141.697,141.697c8.731,8.73 23.659,2.547 23.659,-9.801l0,-66.102c0,-4.847 3.929,-8.776 8.776,-8.776l205.833,0c8.619,0 15.607,-6.987 15.607,-15.607l-0,-104.207c-0,-8.619 -6.988,-15.607 -15.607,-15.607l-205.833,-0c-4.847,-0 -8.776,-3.929 -8.776,-8.775l0,-66.1c0,-12.348 -14.928,-18.531 -23.659,-9.801Z" style="fill:#ffffff;fill-rule:nonzero;"/></g></svg>