<?xml version="1.0" encoding="UTF-8" standalone="no"?><!DOCTYPE svg PUBLIC "-//W3C//DTD SVG 1.1//EN" "http://www.w3.org/Graphics/SVG/1.1/DTD/svg11.dtd"><svg width="100%" height="100%" viewBox="0 0 512 512" version="1.1" xmlns="http://www.w3.org/2000/svg" xmlns:xlink="http://www.w3.org/1999/xlink" xml:space="preserve" xmlns:serif="http://www.serif.com/" style="fill-rule:evenodd;clip-rule:evenodd;stroke-linejoin:round;stroke-miterlimit:2;"><path d="M406.417,78.995l-0,354.01c-0,18.44 -14.972,33.412 -33.412,33.412l-234.01,-0c-18.44,-0 -33.412,-14.972 -33.412,-33.412l0,-354.01c0,-18.44 14.972,-33.412 33.412,-33.412l234.01,0c18.44,0 33.412,14.972 33.412,33.412Zm-20.834,0c0,-6.942 -5.636,-12.578 -12.578,-12.578l-234.01,-0c-6.942,-0 -12.578,5.636 -12.578,12.578l-0,354.01c-0,6.942 5.636,12.578 12.578,12.578l234.01,0c6.942,0 12.578,-5.636 12.578,-12.578l0,-354.01Zm-28.166,12.005l-0,97c-0,5.753 -4.664,10.417 -10.417,10.417l-182,-0c-5.753,-0 -10.417,-4.664 -10.417,-10.417l0,-97c0,-5.753 4.664,-10.417 10.417,-10.417l182,0c5.753,0 10.417,4.664 10.417,10.417Zm-20.834,10.417l-161.166,-0l-0,76.166l161.166,0l0,-76.166Z" style="fill:#fff;"/></svg>