<?xml version="1.0" encoding="UTF-8" standalone="no"?><!DOCTYPE svg PUBLIC "-//W3C//DTD SVG 1.1//EN" "http://www.w3.org/Graphics/SVG/1.1/DTD/svg11.dtd"><svg width="100%" height="100%" viewBox="0 0 512 512" version="1.1" xmlns="http://www.w3.org/2000/svg" xmlns:xlink="http://www.w3.org/1999/xlink" xml:space="preserve" xmlns:serif="http://www.serif.com/" style="fill-rule:evenodd;clip-rule:evenodd;stroke-linejoin:round;stroke-miterlimit:2;"><path d="M430.839,455.997c-6.673,0.019 -13.083,-2.637 -17.788,-7.368l-148.664,-148.661c-2.224,-2.224 -5.244,-3.475 -8.389,-3.475c-3.145,0 -6.165,1.251 -8.388,3.475l-148.661,148.661c-4.716,4.716 -11.12,7.369 -17.79,7.369c-13.802,-0 -25.159,-11.357 -25.159,-25.159c0,-6.67 2.653,-13.073 7.369,-17.79l148.661,-148.661c2.224,-2.224 3.474,-5.243 3.474,-8.388c0,-3.145 -1.25,-6.165 -3.474,-8.388l-148.661,-148.661c-4.716,-4.716 -7.369,-11.12 -7.369,-17.79c0,-13.801 11.357,-25.158 25.159,-25.158c6.669,-0 13.073,2.652 17.789,7.368l148.662,148.661c2.223,2.224 5.243,3.475 8.388,3.475c3.146,0 6.166,-1.251 8.389,-3.475l148.66,-148.661c4.717,-4.716 11.12,-7.369 17.79,-7.369c13.802,0 25.159,11.357 25.159,25.159c0,6.67 -2.652,13.074 -7.369,17.79l-148.661,148.661c-4.602,4.601 -4.602,12.174 -0,16.776l148.661,148.661c4.719,4.716 7.373,11.121 7.373,17.792c0,13.801 -11.356,25.156 -25.156,25.156c-0.002,0 -0.003,0 -0.005,0Z" style="fill:#ffffff;fill-rule:nonzero;"/></svg>