<?xml version="1.0" encoding="UTF-8" standalone="no"?><!DOCTYPE svg PUBLIC "-//W3C//DTD SVG 1.1//EN" "http://www.w3.org/Graphics/SVG/1.1/DTD/svg11.dtd"><svg width="100%" height="100%" viewBox="0 0 512 512" version="1.1" xmlns="http://www.w3.org/2000/svg" xmlns:xlink="http://www.w3.org/1999/xlink" xml:space="preserve" xmlns:serif="http://www.serif.com/" style="fill-rule:evenodd;clip-rule:evenodd;stroke-linejoin:round;stroke-miterlimit:2;"><g><path d="M221.005,418.219l0,-343.811c0,-10.13 8.368,-18.395 18.396,-18.395l33.195,-0c10.028,-0 18.396,8.368 18.396,18.395l-0,343.811c-0,10.027 -8.265,18.396 -18.396,18.396l-33.195,-0c-10.131,-0 -18.396,-8.265 -18.396,-18.396Z" style="fill:#fff;"/><path d="M141.776,253.101l148.091,148.091c7.163,7.165 7.078,18.939 0,26.017l-23.471,23.472c-7.078,7.075 -18.939,7.075 -26.017,-0l-148.091,-148.091c-7.078,-7.078 -7.163,-18.852 -0,-26.017l23.472,-23.472c7.164,-7.162 18.851,-7.162 26.016,-0Z" style="fill:#fff;"/><path d="M370.224,253.101l-148.091,148.091c-7.163,7.165 -7.078,18.939 -0,26.017l23.471,23.472c7.078,7.075 18.939,7.075 26.017,-0l148.091,-148.091c7.078,-7.078 7.163,-18.852 0,-26.017l-23.472,-23.472c-7.164,-7.162 -18.851,-7.162 -26.016,-0Z" style="fill:#fff;"/></g></svg>