<?xml version="1.0" encoding="UTF-8" standalone="no"?><!DOCTYPE svg PUBLIC "-//W3C//DTD SVG 1.1//EN" "http://www.w3.org/Graphics/SVG/1.1/DTD/svg11.dtd"><svg width="100%" height="100%" viewBox="0 0 512 512" version="1.1" xmlns="http://www.w3.org/2000/svg" xmlns:xlink="http://www.w3.org/1999/xlink" xml:space="preserve" xmlns:serif="http://www.serif.com/" style="fill-rule:evenodd;clip-rule:evenodd;stroke-linejoin:round;stroke-miterlimit:2;"><g><g><g><path d="M310.276,118.585l-199.368,199.376l83.063,83.063l199.376,-199.368l-83.071,-83.071Z" style="fill:#1e2e36;fill-rule:nonzero;"/></g></g><g><g><path d="M453.059,125.334l-66.462,-66.461c-4.406,-4.405 -12.207,-4.405 -16.613,0l-43.096,43.099l83.071,83.071l43.099,-43.096c2.203,-2.203 3.442,-5.186 3.442,-8.306c-0,-3.12 -1.239,-6.104 -3.441,-8.307Z" style="fill:#1e2e36;fill-rule:nonzero;"/></g></g><g><g><path d="M94.296,334.574l-8.313,8.312c-1.399,1.4 -2.431,3.132 -2.983,5.037l-27.041,93.49c-1.182,4.119 -0.046,8.547 2.984,11.576c2.236,2.236 5.231,3.442 8.305,3.442c1.091,-0 2.192,-0.149 3.27,-0.459l93.491,-27.041c1.905,-0.551 3.637,-1.583 5.037,-2.983l8.312,-8.312l-83.062,-83.062Z" style="fill:#1e2e36;fill-rule:nonzero;"/></g></g></g></svg>