<?xml version="1.0" encoding="UTF-8" standalone="no"?><!DOCTYPE svg PUBLIC "-//W3C//DTD SVG 1.1//EN" "http://www.w3.org/Graphics/SVG/1.1/DTD/svg11.dtd"><svg width="100%" height="100%" viewBox="0 0 512 512" version="1.1" xmlns="http://www.w3.org/2000/svg" xmlns:xlink="http://www.w3.org/1999/xlink" xml:space="preserve" xmlns:serif="http://www.serif.com/" style="fill-rule:evenodd;clip-rule:evenodd;stroke-linejoin:round;stroke-miterlimit:2;"><g><path d="M332.968,56l2.846,0c2.283,28.209 -8.484,49.286 -21.57,64.55c-12.839,15.158 -30.422,29.86 -58.859,27.629c-1.897,-27.805 8.888,-47.319 21.956,-62.547c12.12,-14.193 34.339,-26.822 55.627,-29.632Z" style="fill:#101010;fill-rule:nonzero;"/><path d="M419.053,349.611l-0,0.79c-7.992,24.204 -19.392,44.948 -33.303,64.199c-12.699,17.477 -28.261,40.996 -56.049,40.996c-24.011,0 -39.959,-15.439 -64.567,-15.861c-26.031,-0.421 -40.346,12.91 -64.147,16.265l-8.114,-0c-17.477,-2.529 -31.582,-16.37 -41.857,-28.841c-30.299,-36.851 -53.713,-84.451 -58.069,-145.365l0,-17.899c1.845,-43.595 23.028,-79.041 51.184,-96.219c14.859,-9.134 35.287,-16.915 58.033,-13.437c9.749,1.511 19.708,4.848 28.438,8.15c8.272,3.179 18.618,8.818 28.419,8.519c6.64,-0.193 13.244,-3.653 19.936,-6.095c19.602,-7.078 38.818,-15.193 64.146,-11.382c30.44,4.602 52.044,18.127 65.393,38.994c-25.749,16.388 -46.107,41.083 -42.629,83.256c3.091,38.309 25.363,60.721 53.186,73.93Z" style="fill:#101010;fill-rule:nonzero;"/></g></svg>