<?xml version="1.0" encoding="UTF-8" standalone="no"?><!DOCTYPE svg PUBLIC "-//W3C//DTD SVG 1.1//EN" "http://www.w3.org/Graphics/SVG/1.1/DTD/svg11.dtd"><svg width="100%" height="100%" viewBox="0 0 512 512" version="1.1" xmlns="http://www.w3.org/2000/svg" xmlns:xlink="http://www.w3.org/1999/xlink" xml:space="preserve" xmlns:serif="http://www.serif.com/" style="fill-rule:evenodd;clip-rule:evenodd;stroke-linejoin:round;stroke-miterlimit:2;"><g><path d="M268.5,243.5l187.5,0l0,-175c0,-6.9 -5.6,-12.5 -12.5,-12.5l-175,0l0,187.5Z" style="fill:#4caf50;fill-rule:nonzero;"/><path d="M243.5,243.5l0,-187.5l-175,0c-6.9,0 -12.5,5.6 -12.5,12.5l0,175l187.5,0Z" style="fill:#f44336;fill-rule:nonzero;"/><path d="M243.5,268.5l-187.5,0l0,175c0,6.9 5.6,12.5 12.5,12.5l175,0l0,-187.5Z" style="fill:#2196f3;fill-rule:nonzero;"/><path d="M268.5,268.5l0,187.5l175,0c6.9,0 12.5,-5.6 12.5,-12.5l0,-175l-187.5,0Z" style="fill:#ffc107;fill-rule:nonzero;"/></g></svg>