<?xml version="1.0" encoding="UTF-8" standalone="no"?><!DOCTYPE svg PUBLIC "-//W3C//DTD SVG 1.1//EN" "http://www.w3.org/Graphics/SVG/1.1/DTD/svg11.dtd"><svg width="100%" height="100%" viewBox="0 0 512 512" version="1.1" xmlns="http://www.w3.org/2000/svg" xmlns:xlink="http://www.w3.org/1999/xlink" xml:space="preserve" xmlns:serif="http://www.serif.com/" style="fill-rule:evenodd;clip-rule:evenodd;stroke-linejoin:round;stroke-miterlimit:2;"><g><path d="M144.648,297.725l-13.923,51.978l-50.89,1.077c-15.208,-28.209 -23.835,-60.483 -23.835,-94.78c-0,-33.165 8.066,-64.44 22.362,-91.978l0.011,-0l45.307,8.306l19.847,45.034c-4.154,12.111 -6.418,25.111 -6.418,38.638c0.001,14.681 2.661,28.748 7.539,41.725Z" style="fill:#fbbb00;fill-rule:nonzero;"/><path d="M452.505,218.637c2.297,12.099 3.495,24.593 3.495,37.363c-0,14.319 -1.505,28.286 -4.373,41.759c-9.736,45.846 -35.176,85.878 -70.418,114.208l-0.011,-0.011l-57.065,-2.911l-8.077,-50.418c23.385,-13.714 41.66,-35.176 51.286,-60.868l-106.945,-0l-0,-79.122l192.108,0.001Z" style="fill:#518ef8;fill-rule:nonzero;"/><path d="M381.198,411.956l0.011,0.011c-34.275,27.549 -77.814,44.033 -125.209,44.033c-76.165,-0 -142.384,-42.571 -176.165,-105.22l64.813,-53.054c16.89,45.076 60.374,77.165 111.352,77.165c21.912,-0 42.44,-5.924 60.055,-16.264l65.143,53.329Z" style="fill:#28b446;fill-rule:nonzero;"/><path d="M383.659,102.044l-64.791,53.043c-18.231,-11.395 -39.781,-17.978 -62.868,-17.978c-52.132,0 -96.429,33.561 -112.473,80.253l-65.154,-53.34l-0.011,-0c33.286,-64.176 100.341,-108.022 177.638,-108.022c48.527,0 93.022,17.286 127.659,46.044Z" style="fill:#f14336;fill-rule:nonzero;"/></g></svg>