<?xml version="1.0" encoding="UTF-8" standalone="no"?><!DOCTYPE svg PUBLIC "-//W3C//DTD SVG 1.1//EN" "http://www.w3.org/Graphics/SVG/1.1/DTD/svg11.dtd"><svg width="100%" height="100%" viewBox="0 0 512 512" version="1.1" xmlns="http://www.w3.org/2000/svg" xmlns:xlink="http://www.w3.org/1999/xlink" xml:space="preserve" xmlns:serif="http://www.serif.com/" style="fill-rule:evenodd;clip-rule:evenodd;stroke-linejoin:round;stroke-miterlimit:2;"><path d="M247.128,427.277l-159.893,-162.026c-66.987,-67.854 -19.017,-184.261 75.521,-184.261c57.07,-0 83.039,41.819 93.273,49.669c10.184,-7.817 36.318,-49.669 93.272,-49.669c94.839,-0 142.225,116.707 75.538,184.261l-159.91,162.026c-2.35,2.4 -5.55,3.733 -8.9,3.733c-3.351,0 -6.551,-1.333 -8.901,-3.733Zm8.901,-14.709l156.949,-159.026c56.388,-57.122 16.516,-155.886 -63.677,-155.886c-33.97,0 -54.946,17.756 -67.526,30.525c-7.06,7.165 -12.189,13.083 -15.598,15.699c-5.984,4.593 -14.307,4.595 -20.293,0.003c-3.428,-2.63 -8.558,-8.555 -15.612,-15.728c-12.557,-12.767 -33.483,-30.499 -67.516,-30.499c-79.938,0 -120.302,98.511 -63.66,155.885l156.933,159.027Z" style="fill:#f44336;"/></svg>