<?xml version="1.0" encoding="UTF-8" standalone="no"?><!DOCTYPE svg PUBLIC "-//W3C//DTD SVG 1.1//EN" "http://www.w3.org/Graphics/SVG/1.1/DTD/svg11.dtd"><svg width="100%" height="100%" viewBox="0 0 512 512" version="1.1" xmlns="http://www.w3.org/2000/svg" xmlns:xlink="http://www.w3.org/1999/xlink" xml:space="preserve" xmlns:serif="http://www.serif.com/" style="fill-rule:evenodd;clip-rule:evenodd;stroke-linejoin:round;stroke-miterlimit:2;"><path d="M247.128,427.277l-159.893,-162.026c-66.987,-67.854 -19.017,-184.261 75.521,-184.261c57.07,-0 83.039,41.819 93.273,49.669c10.184,-7.817 36.318,-49.669 93.272,-49.669c94.839,-0 142.225,116.707 75.538,184.261l-159.91,162.026c-2.35,2.4 -5.55,3.733 -8.9,3.733c-3.351,0 -6.551,-1.333 -8.901,-3.733Zm8.901,-35.608l146.501,-148.44c47.318,-47.933 14.064,-130.893 -53.229,-130.893c-28.776,0 -46.412,15.331 -57.069,26.147c-7.705,7.821 -13.396,14.186 -17.117,17.042c-11.254,8.639 -26.908,8.642 -38.166,0.006c-3.743,-2.872 -9.439,-9.249 -17.143,-17.082c-10.635,-10.813 -28.228,-26.113 -57.05,-26.113c-67.078,0 -100.743,82.747 -53.213,130.892l146.486,148.441Z" style="fill:#a8a4a2;"/></svg>