<?xml version="1.0" encoding="UTF-8" standalone="no"?><!DOCTYPE svg PUBLIC "-//W3C//DTD SVG 1.1//EN" "http://www.w3.org/Graphics/SVG/1.1/DTD/svg11.dtd"><svg width="100%" height="100%" viewBox="0 0 512 512" version="1.1" xmlns="http://www.w3.org/2000/svg" xmlns:xlink="http://www.w3.org/1999/xlink" xml:space="preserve" xmlns:serif="http://www.serif.com/" style="fill-rule:evenodd;clip-rule:evenodd;stroke-linejoin:round;stroke-miterlimit:2;"><g><path d="M372.576,456l-260,0c-30.909,0 -54.545,-23.636 -54.545,-54.545l-0,-127.273c-0,-30.909 23.636,-54.546 54.545,-54.546l43.636,0l67.273,-152.727c1.818,-7.273 9.091,-10.909 16.364,-10.909c40,-0 72.727,32.727 72.727,72.727l-0,54.546l94.545,-0c14.546,1.818 27.273,9.091 36.364,21.818c9.091,10.909 12.727,25.454 9.091,40l-25.455,163.636c-5.454,27.273 -27.272,47.273 -54.545,47.273Zm-187.273,-36.364l187.273,0c9.091,0 16.364,-7.272 18.182,-14.545l25.454,-163.636c0,-5.455 0,-9.091 -3.636,-12.728c-3.636,-3.636 -7.273,-7.272 -12.727,-7.272l-105.455,-0c-10.909,-0 -18.182,-7.273 -18.182,-18.182l0,-74.546c0,-16.363 -10.909,-29.091 -25.454,-34.545l-65.455,147.273l0,178.181Zm-72.727,-163.636c-10.909,-0 -18.182,7.273 -18.182,18.182l0,127.273c0,10.909 7.273,18.181 18.182,18.181l36.364,0l-0,-163.636l-36.364,-0Z" style="fill:#1e2e36;fill-rule:nonzero;"/></g></svg>