<?xml version="1.0" encoding="UTF-8" standalone="no"?><!DOCTYPE svg PUBLIC "-//W3C//DTD SVG 1.1//EN" "http://www.w3.org/Graphics/SVG/1.1/DTD/svg11.dtd"><svg width="100%" height="100%" viewBox="0 0 512 512" version="1.1" xmlns="http://www.w3.org/2000/svg" xmlns:xlink="http://www.w3.org/1999/xlink" xml:space="preserve" xmlns:serif="http://www.serif.com/" style="fill-rule:evenodd;clip-rule:evenodd;stroke-linejoin:round;stroke-miterlimit:2;"><g><path d="M372.576,456l-260,0c-30.909,0 -54.545,-23.636 -54.545,-54.545l-0,-127.273c-0,-30.909 23.636,-54.546 54.545,-54.546l43.636,0l67.273,-152.727c1.818,-7.273 9.091,-10.909 16.364,-10.909c40,-0 72.727,32.727 72.727,72.727l-0,54.546l94.545,-0c14.546,1.818 27.273,9.091 36.364,21.818c9.091,10.909 12.727,25.454 9.091,40l-25.455,163.636c-5.454,27.273 -27.272,47.273 -54.545,47.273Z" style="fill:#1e2e36;"/></g></svg>