<?xml version="1.0" encoding="UTF-8" standalone="no"?><!DOCTYPE svg PUBLIC "-//W3C//DTD SVG 1.1//EN" "http://www.w3.org/Graphics/SVG/1.1/DTD/svg11.dtd"><svg width="100%" height="100%" viewBox="0 0 512 512" version="1.1" xmlns="http://www.w3.org/2000/svg" xmlns:xlink="http://www.w3.org/1999/xlink" xml:space="preserve" xmlns:serif="http://www.serif.com/" style="fill-rule:evenodd;clip-rule:evenodd;stroke-linejoin:round;stroke-miterlimit:2;"><g><path d="M439.156,182.208c-8.931,-19.761 -21.268,-37.587 -36.665,-52.98c-33.857,-33.858 -78.877,-52.509 -126.766,-52.509c-92.137,-0 -168.235,69.868 -178.162,159.4l-12.816,-12.816c-6.343,-6.352 -16.636,-6.347 -22.984,-0c-6.351,6.347 -6.351,16.64 0,22.987l41.205,41.209c3.047,3.047 7.184,4.762 11.491,4.762c4.308,-0 8.444,-1.711 11.492,-4.758l41.208,-41.209c6.352,-6.351 6.352,-16.64 0,-22.987c-6.343,-6.347 -16.644,-6.347 -22.983,-0l-13.991,13.991c9.225,-72.124 70.954,-128.067 145.544,-128.067c39.201,0 76.057,15.267 103.779,42.988c12.613,12.614 22.719,27.21 30.029,43.383c8.599,19.025 12.955,39.347 12.955,60.4c-0,80.929 -65.838,146.771 -146.763,146.771c-39.197,-0 -76.045,-15.259 -103.762,-42.968c-6.352,-6.347 -16.641,-6.343 -22.988,0.004c-6.347,6.347 -6.347,16.64 0.004,22.988c33.862,33.845 78.873,52.484 126.746,52.484c98.85,0 179.271,-80.425 179.271,-179.279c0,-25.706 -5.331,-50.53 -15.844,-73.794Z" style="fill:#ffffff;fill-rule:nonzero;"/><g><path d="M316.949,339.305c-4.157,-0 -8.322,-1.589 -11.491,-4.759l-41.692,-41.692c-3.048,-3.047 -4.763,-7.184 -4.763,-11.496l0,-106.631c0,-8.976 7.278,-16.254 16.255,-16.254c8.976,0 16.254,7.278 16.254,16.254l-0,99.898l36.929,36.93c6.351,6.351 6.351,16.64 0,22.987c-3.169,3.174 -7.335,4.763 -11.492,4.763Z" style="fill:#ffffff;fill-rule:nonzero;"/></g></g></svg>