<?xml version="1.0" encoding="UTF-8" standalone="no"?><!DOCTYPE svg PUBLIC "-//W3C//DTD SVG 1.1//EN" "http://www.w3.org/Graphics/SVG/1.1/DTD/svg11.dtd"><svg width="100%" height="100%" viewBox="0 0 512 512" version="1.1" xmlns="http://www.w3.org/2000/svg" xmlns:xlink="http://www.w3.org/1999/xlink" xml:space="preserve" xmlns:serif="http://www.serif.com/" style="fill-rule:evenodd;clip-rule:evenodd;stroke-linejoin:round;stroke-miterlimit:2;"><path id="signature_x2C_-name_x2C_-person_x2C_-distinctive_x2C_-identification_x2C_-authorization" d="M120.543,374.683c-0,6.481 -5.254,11.736 -11.736,11.736c-6.481,-0 -11.735,-5.254 -11.735,-11.736c-0,-15.83 0.43,-30.994 1.293,-45.311c-5.432,1.543 -10.971,2.886 -16.594,4.011c-6.355,1.271 -12.537,-2.851 -13.809,-9.206c-1.27,-6.355 2.851,-12.538 9.206,-13.809c7.988,-1.598 15.774,-3.687 23.257,-6.194c2.527,-24.017 6.486,-44.872 11.893,-61.476c12.925,-39.699 36.031,-57.927 66.28,-42.802c30.221,15.11 31.073,46.642 7.554,75.804c-14.601,18.105 -37.079,34.073 -63.68,45.234c-1.28,16.606 -1.929,34.653 -1.929,53.749Zm47.34,-113.717c15.187,-18.831 14.81,-32.784 0.22,-40.079c-14.048,-7.023 -24.365,1.115 -33.468,29.076c-3.911,12.014 -7.028,26.817 -9.326,43.816c17.806,-9.057 32.626,-20.477 42.574,-32.813Zm123.826,-50.602l105.615,-105.615c9.166,-9.166 24.027,-9.166 33.193,-0l18.609,18.609c9.165,9.166 9.165,24.026 -0,33.192l-105.617,105.616c-4.401,4.401 -10.371,6.874 -16.596,6.874l-30.344,-0c-6.481,-0 -11.736,-5.254 -11.736,-11.736l0,-30.344c0.001,-6.224 2.474,-12.194 6.876,-16.596Zm35.204,35.206l70.41,-70.41l-18.609,-18.61l-70.411,70.41l0,18.61l18.61,-0Zm105.617,-105.616l-18.61,-18.609l-18.609,18.609l18.609,18.609l18.61,-18.609Zm-244.48,195.516c-4.267,4.877 -11.681,5.372 -16.559,1.104c-4.877,-4.268 -5.372,-11.682 -1.104,-16.559l32.458,-37.094c6.402,-7.316 17.522,-8.058 24.839,-1.656c3.248,2.842 5.34,6.78 5.875,11.064l1.164,9.312l7.316,-7.721c6.686,-7.058 17.827,-7.358 24.885,-0.672c0.855,0.811 1.627,1.706 2.304,2.671l8.686,12.384l38.913,-11.076c6.234,-1.775 12.725,1.84 14.499,8.073c1.775,6.234 -1.84,12.726 -8.074,14.5l-42.926,12.219c-7.208,2.052 -14.927,-0.685 -19.231,-6.822l-6.958,-9.922l-10.918,11.524c-2.804,2.96 -6.549,4.854 -10.595,5.359c-9.647,1.206 -18.445,-5.636 -19.65,-15.283l-1.082,-8.654l-23.842,27.249Zm208.268,-78.166c-0,-6.481 5.253,-11.735 11.735,-11.735c6.482,-0 11.736,5.254 11.736,11.735l-0,105.616c-0,19.444 -15.762,35.205 -35.206,35.205l-228.835,0c-6.481,0 -11.735,-5.253 -11.735,-11.735c-0,-6.481 5.254,-11.735 11.735,-11.735l228.834,-0c6.481,-0 11.736,-5.254 11.736,-11.736l-0,-105.615Zm-88.014,-129.085c6.481,-0 11.735,5.253 11.735,11.735c0,6.482 -5.253,11.736 -11.735,11.736l-217.099,-0c-6.48,-0 -11.735,5.253 -11.735,11.735l0,93.881c0,6.481 -5.254,11.735 -11.735,11.735c-6.482,0 -11.735,-5.255 -11.735,-11.737l0,-93.88c0,-19.443 15.762,-35.205 35.205,-35.205l217.099,-0Z" style="fill:#ffffff;fill-rule:nonzero;"/></svg>