<?xml version="1.0" encoding="UTF-8" standalone="no"?><!DOCTYPE svg PUBLIC "-//W3C//DTD SVG 1.1//EN" "http://www.w3.org/Graphics/SVG/1.1/DTD/svg11.dtd"><svg width="100%" height="100%" viewBox="0 0 512 512" version="1.1" xmlns="http://www.w3.org/2000/svg" xmlns:xlink="http://www.w3.org/1999/xlink" xml:space="preserve" xmlns:serif="http://www.serif.com/" style="fill-rule:evenodd;clip-rule:evenodd;stroke-linejoin:round;stroke-miterlimit:2;"><path d="M435.043,313.947c2.993,-2.995 5.031,-6.807 5.857,-10.96c0.826,-4.151 0.4,-8.455 -1.218,-12.366c-1.621,-3.911 -4.363,-7.253 -7.882,-9.605c-3.521,-2.353 -7.657,-3.61 -11.891,-3.61l-149.845,0l0,42.813l98.17,0l-91.898,91.898c-2.993,2.995 -5.03,6.807 -5.857,10.96c-0.826,4.151 -0.4,8.455 1.218,12.366c1.621,3.911 4.363,7.253 7.882,9.605c3.522,2.353 7.657,3.61 11.891,3.61l149.845,-0l0,-42.813l-98.17,-0l91.898,-91.898Zm-272.011,-229.412l-42.813,-0l0,256.877l-64.219,-0l85.626,85.625l85.625,-85.625l-64.219,-0l0,-256.877Zm214.064,-21.193l-42.813,0c-8.926,0 -16.911,5.545 -20.058,13.893l-58.867,156.973l45.745,0l15.905,-42.427l77.342,-0l15.905,42.406l45.745,-0l-58.868,-156.973c-1.532,-4.076 -4.272,-7.587 -7.851,-10.065c-3.58,-2.479 -7.831,-3.807 -12.185,-3.807Zm-44.033,85.626l16.055,-42.813l13.122,0l16.055,42.813l-45.232,-0Z" style="fill:#1e2e36;fill-rule:nonzero;"/></svg>