<?xml version="1.0" encoding="UTF-8" standalone="no"?><!DOCTYPE svg PUBLIC "-//W3C//DTD SVG 1.1//EN" "http://www.w3.org/Graphics/SVG/1.1/DTD/svg11.dtd"><svg width="100%" height="100%" viewBox="0 0 2134 2134" version="1.1" xmlns="http://www.w3.org/2000/svg" xmlns:xlink="http://www.w3.org/1999/xlink" xml:space="preserve" xmlns:serif="http://www.serif.com/" style="fill-rule:evenodd;clip-rule:evenodd;stroke-linejoin:round;stroke-miterlimit:2;"><path d="M1515.55,1245.48c33.906,-33.906 87.285,-33.906 121.191,0c32.761,33.906 32.761,87.286 0,121.192l-507.827,507.903c-15.731,15.732 -37.572,25.43 -61.78,25.43c-24.207,-0 -46.048,-9.698 -61.855,-25.43l-507.828,-507.903c-33.906,-33.906 -33.906,-87.286 0,-121.192c33.906,-33.906 87.286,-33.906 121.192,0l362.428,363.651l0,-1290.95c-0.076,-47.27 38.717,-84.842 85.987,-84.842c47.27,0 84.842,37.572 84.842,84.842l-0,1290.87l363.65,-363.574Z" style="fill:#fff;fill-rule:nonzero;"/></svg>