<?xml version="1.0" encoding="UTF-8" standalone="no"?><!DOCTYPE svg PUBLIC "-//W3C//DTD SVG 1.1//EN" "http://www.w3.org/Graphics/SVG/1.1/DTD/svg11.dtd"><svg width="100%" height="100%" viewBox="0 0 2134 2134" version="1.1" xmlns="http://www.w3.org/2000/svg" xmlns:xlink="http://www.w3.org/1999/xlink" xml:space="preserve" xmlns:serif="http://www.serif.com/" style="fill-rule:evenodd;clip-rule:evenodd;stroke-linejoin:round;stroke-miterlimit:2;"><g><path d="M1066.67,233.333c459.929,0 833.333,373.404 833.333,833.334c0,459.929 -373.404,833.333 -833.333,833.333c-459.93,0 -833.334,-373.404 -833.334,-833.333c0,-459.93 373.404,-833.334 833.334,-833.334Zm-0,41.808c-436.855,0 -791.526,354.671 -791.526,791.526c0,436.854 354.671,791.525 791.526,791.525c436.854,0 791.525,-354.671 791.525,-791.525c0,-436.855 -354.671,-791.526 -791.525,-791.526Z" style="fill:#1e2e36;"/><path d="M1066.67,266.667c441.532,-0 800,358.468 800,800c-0,441.532 -358.468,800 -800,800c-441.532,-0 -800,-358.468 -800,-800c-0,-441.532 358.468,-800 800,-800Zm-0,41.808c-418.458,-0 -758.192,339.734 -758.192,758.192c-0,418.457 339.734,758.192 758.192,758.192c418.457,-0 758.192,-339.735 758.192,-758.192c-0,-418.458 -339.735,-758.192 -758.192,-758.192Z" style="fill:#1e2e36;"/><path d="M1083.33,375c10.501,48.413 44.792,210.658 96.513,334.787c28.043,67.303 80.744,91.67 148.164,93.303c94.074,2.277 235.867,-44.355 359.49,-73.923c-35.75,33.895 -124.535,110.356 -187.5,175c-34.936,35.867 -80.067,77.555 -86.665,89.884c-8.928,16.683 -30.002,47.616 -27.077,80.838c2.126,24.143 19.645,57.567 47.075,95.944c38.724,54.178 125,129.167 245.834,225c-64.814,-18.138 -265.218,-76.14 -362.5,-66.666c-35.92,3.498 -72.383,7.407 -95.894,25.942c-23.374,18.429 -43.795,64.425 -62.44,111.558c-23.446,59.27 -45.236,148.635 -75,279.166c-11.95,-59.037 -52.997,-256.174 -112.5,-358.333c-11.747,-20.169 -36.877,-42.224 -62.5,-50c-1.259,-0.382 -2.532,-0.751 -3.818,-1.107c-36.861,-10.207 -87.664,-9.002 -137.848,-3.06c-102.919,12.187 -228.857,52.159 -277.239,65.061c-2.175,0.58 -4.208,1.118 -6.095,1.606c46.584,-34.141 219.596,-162.088 286.568,-273.048c16.433,-27.225 15.391,-58.55 2.649,-91.645c-12.417,-32.248 -47.912,-68.568 -76.717,-101.974c-59.952,-69.528 -133.333,-131.318 -183.333,-175c-13.479,-11.776 -34.142,-29.651 -41.667,-37.5c44.906,17.729 209.708,72.465 362.5,83.334c37.342,2.656 70.915,-7.456 95.834,-20.834c37.25,-19.998 54.993,-47.826 75.004,-96.254c31.381,-75.946 49.539,-194.305 79.162,-312.079Z" style="fill:#1e2e36;"/></g></svg>