<?xml version="1.0" encoding="UTF-8" standalone="no"?><!DOCTYPE svg PUBLIC "-//W3C//DTD SVG 1.1//EN" "http://www.w3.org/Graphics/SVG/1.1/DTD/svg11.dtd"><svg width="100%" height="100%" viewBox="0 0 2134 2134" version="1.1" xmlns="http://www.w3.org/2000/svg" xmlns:xlink="http://www.w3.org/1999/xlink" xml:space="preserve" xmlns:serif="http://www.serif.com/" style="fill-rule:evenodd;clip-rule:evenodd;stroke-linejoin:round;stroke-miterlimit:2;"><g><path d="M1362.5,1938.71l-783.354,0c-74.243,0 -134.521,-60.278 -134.521,-134.52l0,-1475.04c0,-74.243 60.278,-134.521 134.521,-134.521l975.042,0c74.242,0 134.52,60.278 134.52,134.521l0,1166.69l-77.416,0l-0,-1166.69c-0,-31.516 -25.589,-57.104 -57.105,-57.104l-975.041,-0c-31.516,-0 -57.104,25.588 -57.104,57.104l-0,1475.04c-0,31.515 25.588,57.104 57.104,57.104l783.354,-0l0,77.416Zm122.042,-1559.54l-0,404.166c-0,21.378 -17.331,38.709 -38.709,38.709l-758.333,-0c-21.378,-0 -38.708,-17.331 -38.708,-38.709l-0,-404.166c-0,-21.378 17.33,-38.709 38.708,-38.709l758.333,0c21.378,0 38.709,17.331 38.709,38.709Zm-77.417,38.708l-680.917,-0l0,326.75l680.917,0l-0,-326.75Z" style="fill:#ffffff;"/><path d="M1694.55,1883.33l-16.346,116.667l-72.115,0l16.346,-116.667l-64.744,0l-16.346,116.667l-72.436,0l16.667,-116.667l-60.577,0l9.936,-70.512l60.577,-0l8.974,-65.065l-60.256,0l9.615,-70.512l60.577,-0l16.026,-114.744l76.602,-0l-16.025,114.744l56.089,-0l16.026,-114.744l76.603,-0l-16.026,114.744l67.628,-0l-9.936,70.512l-67.628,0l-9.295,65.065l67.628,-0l-9.936,70.512l-67.628,0Zm-52.884,-135.577l-65.064,0l-8.975,65.065l64.744,-0l9.295,-65.065Z" style="fill:#ffffff;fill-rule:nonzero;"/></g></svg>