<?xml version="1.0" encoding="UTF-8" standalone="no"?><!DOCTYPE svg PUBLIC "-//W3C//DTD SVG 1.1//EN" "http://www.w3.org/Graphics/SVG/1.1/DTD/svg11.dtd"><svg width="100%" height="100%" viewBox="0 0 512 512" version="1.1" xmlns="http://www.w3.org/2000/svg" xmlns:xlink="http://www.w3.org/1999/xlink" xml:space="preserve" xmlns:serif="http://www.serif.com/" style="fill-rule:evenodd;clip-rule:evenodd;stroke-linejoin:round;stroke-miterlimit:2;"><g><circle cx="256" cy="256" r="40" style="fill:#fff;"/><path d="M454.799,248.999c-32.224,-81.309 -111.346,-134.242 -198.799,-132.998c-87.454,-1.244 -166.576,51.689 -198.8,132.998c-1.6,4.53 -1.6,9.472 0,14.001c32.224,81.309 111.346,134.242 198.8,132.999c87.453,1.243 166.575,-51.69 198.799,-132.999c1.6,-4.531 1.603,-9.471 -0,-14.001Zm-198.756,87.001l-0.043,-0c-44.184,-0 -80,-35.818 -80,-80c-0,-44.183 35.816,-80 80,-80c44.183,0 79.999,35.817 79.999,80c0.012,44.17 -35.785,79.988 -79.956,80Z" style="fill:#fff;fill-rule:nonzero;"/></g></svg>