<?xml version="1.0" encoding="UTF-8" standalone="no"?><!DOCTYPE svg PUBLIC "-//W3C//DTD SVG 1.1//EN" "http://www.w3.org/Graphics/SVG/1.1/DTD/svg11.dtd"><svg width="100%" height="100%" viewBox="0 0 512 512" version="1.1" xmlns="http://www.w3.org/2000/svg" xmlns:xlink="http://www.w3.org/1999/xlink" xml:space="preserve" xmlns:serif="http://www.serif.com/" style="fill-rule:evenodd;clip-rule:evenodd;stroke-linejoin:round;stroke-miterlimit:2;"><g><path d="M256,205.584c27.825,-0 50.416,22.59 50.416,50.416c0,27.826 -22.591,50.417 -50.416,50.417c-27.826,-0 -50.417,-22.591 -50.417,-50.417c0,-27.826 22.591,-50.416 50.417,-50.416Zm-0,20.833c-16.328,-0 -29.584,13.256 -29.584,29.583c0,16.327 13.256,29.583 29.584,29.583c16.327,0 29.583,-13.256 29.583,-29.583c-0,-16.327 -13.256,-29.583 -29.583,-29.583Z" style="fill:#fff;"/><path d="M464.619,245.525c2.398,6.777 2.396,14.167 0.002,20.944c-0.044,0.124 -0.09,0.247 -0.138,0.368c-33.8,85.285 -116.764,140.822 -208.478,139.58c-91.722,1.245 -174.688,-54.293 -208.489,-139.58c-0.048,-0.121 -0.094,-0.244 -0.137,-0.367c-2.394,-6.774 -2.394,-14.165 -0.001,-20.94c0.044,-0.124 0.09,-0.247 0.138,-0.369c33.8,-85.284 116.764,-140.822 208.478,-139.578c91.722,-1.246 174.689,54.292 208.489,139.578c0.047,0.121 0.093,0.242 0.136,0.364Zm-19.585,7.109l-0.004,-0.012c-30.685,-77.166 -105.831,-127.387 -188.882,-126.206c-0.099,0.002 -0.198,0.002 -0.297,0c-83.052,-1.181 -158.199,49.041 -188.887,126.222c-0.73,2.184 -0.73,4.546 0.006,6.74c30.685,77.166 105.831,127.386 188.882,126.206c0.098,-0.002 0.197,-0.002 0.296,-0c83.052,1.18 158.2,-49.042 188.887,-126.223c0.73,-2.183 0.732,-4.545 -0.001,-6.727Zm-189.034,93.782c-49.937,0 -90.417,-40.481 -90.417,-90.416c0,-49.936 40.48,-90.416 90.417,-90.416c49.935,-0 90.415,40.479 90.416,90.415c0.013,49.922 -40.446,90.404 -90.37,90.417l-0.046,0Zm0.041,-20.833c38.418,-0.011 69.552,-31.163 69.542,-69.58l-0,-0.003c-0,-38.43 -31.153,-69.583 -69.583,-69.583c-38.431,-0 -69.583,31.153 -69.583,69.583c-0,38.429 31.152,69.583 69.583,69.583l0.041,0Z" style="fill:#fff;"/></g></svg>