<?xml version="1.0" encoding="UTF-8" standalone="no"?><!DOCTYPE svg PUBLIC "-//W3C//DTD SVG 1.1//EN" "http://www.w3.org/Graphics/SVG/1.1/DTD/svg11.dtd"><svg width="100%" height="100%" viewBox="0 0 512 512" version="1.1" xmlns="http://www.w3.org/2000/svg" xmlns:xlink="http://www.w3.org/1999/xlink" xml:space="preserve" xmlns:serif="http://www.serif.com/" style="fill-rule:evenodd;clip-rule:evenodd;stroke-linejoin:round;stroke-miterlimit:2;"><path d="M213.201,298.799l-143.183,0c-7.737,0 -14.018,-6.281 -14.018,-14.018l-0,-57.562c-0,-7.737 6.281,-14.018 14.018,-14.018l143.183,-0l-0,-143.183c-0,-7.737 6.281,-14.018 14.018,-14.018l57.562,0c7.737,0 14.018,6.281 14.018,14.018l0,143.183l143.183,-0c7.737,-0 14.018,6.281 14.018,14.018l0,57.562c0,7.737 -6.281,14.018 -14.018,14.018l-143.183,0l0,143.183c0,7.737 -6.281,14.018 -14.018,14.018l-57.562,0c-7.737,0 -14.018,-6.281 -14.018,-14.018l-0,-143.183Z" style="fill:#82eb39;"/></svg>