<?xml version="1.0" encoding="UTF-8" standalone="no"?><!DOCTYPE svg PUBLIC "-//W3C//DTD SVG 1.1//EN" "http://www.w3.org/Graphics/SVG/1.1/DTD/svg11.dtd"><svg width="100%" height="100%" viewBox="0 0 512 512" version="1.1" xmlns="http://www.w3.org/2000/svg" xmlns:xlink="http://www.w3.org/1999/xlink" xml:space="preserve" xmlns:serif="http://www.serif.com/" style="fill-rule:evenodd;clip-rule:evenodd;stroke-linejoin:round;stroke-miterlimit:2;"><path d="M446.343,397.967l-91.858,-91.865c16.151,-25.673 24.704,-55.403 24.665,-85.733c0,-89.167 -72.285,-161.442 -161.448,-161.442c-89.164,-0 -161.443,72.275 -161.443,161.442c0,89.17 72.275,161.439 161.443,161.439c32.974,0.042 65.176,-10.066 92.211,-28.945l90.765,90.772c6.051,6.054 14.273,9.453 22.832,9.438c8.563,0.015 16.788,-3.383 22.843,-9.438c12.521,-12.531 12.516,-33.143 -0.01,-45.668Zm-228.641,-68.464c-60.267,-0 -109.128,-48.858 -109.128,-109.128c0,-60.27 48.861,-109.13 109.128,-109.13c60.27,-0 109.127,48.86 109.127,109.13c-0,60.27 -48.857,109.128 -109.127,109.128Z" style="fill:#fff;fill-rule:nonzero;"/></svg>