<?xml version="1.0" encoding="UTF-8" standalone="no"?><!DOCTYPE svg PUBLIC "-//W3C//DTD SVG 1.1//EN" "http://www.w3.org/Graphics/SVG/1.1/DTD/svg11.dtd"><svg width="100%" height="100%" viewBox="0 0 512 512" version="1.1" xmlns="http://www.w3.org/2000/svg" xmlns:xlink="http://www.w3.org/1999/xlink" xml:space="preserve" xmlns:serif="http://www.serif.com/" style="fill-rule:evenodd;clip-rule:evenodd;stroke-linejoin:round;stroke-miterlimit:2;"><path id="XMLID_41_" d="M451.113,427.546l-99.483,-99.482c23.533,-28.733 37.7,-65.433 37.7,-105.399c-0,-91.899 -74.766,-166.665 -166.665,-166.665c-91.899,-0 -166.665,74.766 -166.665,166.665c-0,91.899 74.766,166.665 166.665,166.665c39.966,-0 76.666,-14.167 105.399,-37.7l99.482,99.483c6.517,6.516 17.05,6.516 23.567,-0c6.516,-6.517 6.516,-17.05 -0,-23.567Zm-361.78,-204.881c-0,-73.516 59.816,-133.332 133.332,-133.332c73.516,-0 133.332,59.816 133.332,133.332c-0,73.516 -59.816,133.332 -133.332,133.332c-73.516,-0 -133.332,-59.816 -133.332,-133.332Z" style="fill:#1e2e36;fill-rule:nonzero;"/></svg>