<?xml version="1.0" encoding="UTF-8" standalone="no"?><!DOCTYPE svg PUBLIC "-//W3C//DTD SVG 1.1//EN" "http://www.w3.org/Graphics/SVG/1.1/DTD/svg11.dtd"><svg width="100%" height="100%" viewBox="0 0 512 512" version="1.1" xmlns="http://www.w3.org/2000/svg" xmlns:xlink="http://www.w3.org/1999/xlink" xml:space="preserve" xmlns:serif="http://www.serif.com/" style="fill-rule:evenodd;clip-rule:evenodd;stroke-linejoin:round;stroke-miterlimit:2;"><g><path d="M319.876,180.806c0.012,-0 0.012,-0 -0,-0Zm-0,-0l4.184,0.349l3.932,1.157l3.555,1.872l3.09,2.498l2.553,3.044l1.936,3.519l1.228,3.908l0.426,4.175l-0.426,4.174l-1.228,3.908l-1.935,3.519l-2.551,3.045l-3.09,2.499l-3.555,1.874l-3.933,1.158c-0,0 -4.186,0.35 -3.992,0.352c0,-0 -127.775,-0 -127.96,-0.002l-4.182,-0.352l-3.93,-1.159l-3.553,-1.873l-3.089,-2.497l-2.551,-3.045l-1.936,-3.519l-1.228,-3.908l-0.426,-4.174l0.426,-4.175l1.228,-3.908l1.936,-3.519l2.553,-3.044l3.09,-2.498l3.555,-1.872l3.932,-1.157c0,0 4.184,-0.349 3.99,-0.351l2.913,0l0,-111.815c0,-12.868 10.554,-23.406 23.934,-23.406l74.426,0c13.386,0 23.908,10.532 23.908,23.406l0,111.815c0,0 2.596,0 2.77,0.002Zm-111.089,20.218l94.371,-0c-4.015,-1.447 -6.885,-5.29 -6.885,-9.803l-0,-122.232c-0,-1.543 -1.471,-2.572 -3.075,-2.572l-74.426,-0c-1.61,-0 -3.1,1.023 -3.1,2.572l-0,122.232c-0,4.513 -2.871,8.356 -6.885,9.803Zm-17.042,0.001c-0.002,0 -0.004,0 -0.005,0l0.005,0Zm128.514,0l0.006,0c-0.002,0 -0.004,0 -0.006,0Zm-0,0.611c0.002,-0 0.004,-0 0.006,-0l-0.006,-0Zm-128.523,-0l-0.006,-0c0.002,-0 0.004,-0 0.006,-0Z" style="fill:#fff;"/><path d="M152.718,122.977l19.616,-0c13.761,-0 21.553,11.379 21.553,23.561c0,12.181 -7.792,23.561 -21.553,23.561l-19.616,-0c-0.855,-0 -1.022,0.902 -1.325,1.898l-16.406,53.822l242.019,-0l-16.428,-53.818l-0.003,-0.012c-0.302,-0.991 -0.463,-1.89 -1.318,-1.89l-19.591,-0c-13.78,-0 -21.572,-11.383 -21.572,-23.561c-0,-12.178 7.792,-23.561 21.572,-23.561l19.591,-0c21.978,-0 39.239,11.897 45.369,31.992l22.994,75.401c1.585,5.16 2.34,9.459 2.34,14.621l-0.025,191.398c0,15.902 -15.128,30.028 -35.247,30.028l-277.381,-0c-20.152,-0 -35.267,-14.129 -35.267,-30.028l-0,-191.399c-0,-5.147 0.752,-9.434 2.303,-14.581l0.011,-0.036l23.016,-75.39c6.1,-20.101 23.388,-32.006 45.348,-32.006Zm-0,20.833c-12.146,-0 -22.039,6.105 -25.413,17.223l-0.005,0.016l-23.013,75.385c-0.911,3.023 -1.414,5.532 -1.414,8.556l0,191.399c0,2.285 1.408,4.213 3.297,5.704c2.834,2.236 6.793,3.49 11.137,3.49l277.381,0c4.333,0 8.286,-1.255 11.116,-3.489c1.888,-1.491 3.298,-3.42 3.298,-5.706l0.025,-191.398c-0,-3.009 -0.5,-5.505 -1.426,-8.514l-0.007,-0.023l-22.995,-75.406c-3.393,-11.124 -13.275,-17.237 -25.442,-17.237l-19.591,-0c-0.308,-0 -0.299,0.384 -0.392,0.631c-0.244,0.655 -0.347,1.377 -0.347,2.097c0,0.719 0.103,1.442 0.347,2.096c0.093,0.248 0.084,0.631 0.392,0.631l19.591,0c10.021,0 17.718,5.045 21.247,16.653l20.536,67.276c0.964,3.158 0.374,6.586 -1.59,9.239c-1.965,2.654 -5.071,4.219 -8.373,4.219l-270.154,0c-3.301,0 -6.407,-1.564 -8.371,-4.217c-1.965,-2.652 -2.556,-6.079 -1.593,-9.237l20.506,-67.275c3.54,-11.616 11.282,-16.658 21.253,-16.658l19.616,0c0.301,0 0.282,-0.382 0.373,-0.625c0.244,-0.657 0.347,-1.381 0.347,-2.102c-0,-0.722 -0.103,-1.446 -0.347,-2.102c-0.091,-0.243 -0.072,-0.626 -0.373,-0.626l-19.616,-0Z" style="fill:#fff;"/></g></svg>