<?xml version="1.0" encoding="UTF-8" standalone="no"?><!DOCTYPE svg PUBLIC "-//W3C//DTD SVG 1.1//EN" "http://www.w3.org/Graphics/SVG/1.1/DTD/svg11.dtd"><svg width="100%" height="100%" viewBox="0 0 512 512" version="1.1" xmlns="http://www.w3.org/2000/svg" xmlns:xlink="http://www.w3.org/1999/xlink" xml:space="preserve" xmlns:serif="http://www.serif.com/" style="fill-rule:evenodd;clip-rule:evenodd;stroke-linejoin:round;stroke-miterlimit:2;"><g><path d="M218.772,56l74.426,-0c7.493,-0 13.492,5.783 13.492,12.989l-0,122.232l13.38,-0c5.657,-0.106 10.294,4.45 10.294,10.107c-0,5.657 -4.637,10.218 -10.294,10.112l-128.145,0c-5.657,0.101 -10.294,-4.455 -10.294,-10.112c0,-5.657 4.637,-10.213 10.294,-10.107l13.33,-0l0,-122.232c0,-7.206 6.024,-12.989 13.517,-12.989Z" style="fill:#fff;"/><path d="M152.718,133.393l19.616,0c14.849,0 14.849,26.289 -0,26.289l-19.616,0c-5.396,0 -9.373,2.992 -11.289,9.278l-20.506,67.276l270.154,-0l-20.536,-67.276c-1.911,-6.286 -5.863,-9.278 -11.284,-9.278l-19.591,0c-14.874,0 -14.874,-26.289 0,-26.289l19.591,0c17.072,0 30.644,9.006 35.406,24.615l22.995,75.407c1.257,4.088 1.886,7.487 1.886,11.575l-0.026,191.399c0,10.866 -11.082,19.611 -24.83,19.611l-277.381,0c-13.773,0 -24.851,-8.745 -24.851,-19.611l0,-191.399c0,-4.088 0.629,-7.487 1.861,-11.575l23.02,-75.407c4.737,-15.609 18.329,-24.615 35.381,-24.615Z" style="fill:#fff;"/></g></svg>